# xmcd
#
# Track frame offsets:
#	182
#	10357
#	20417
#	32205
#	41910
#	52330
#	64745
#	73810
#	85195
#	97740
#	110262
#	123480
#	135050
#	146562
#	158160
#	171362
#	183287
#	197335
#
# Disc length: 2769 seconds
#
# Revision: 0
# Processed by: cddbd v1.4PL0 Copyright (c) Steve Scherf et al.
# Submitted via: dBpowerAMP V4.0
#
DISCID=f40acf12
DTITLE=Earl Hooker - Jazz and Blues Collection
DYEAR=1900
DGENRE=Blues
TTITLE0=Blues in D natural
TTITLE1=How long can this go on
TTITLE2=Swear to tell the truth
TTITLE3=Rockin' wild
TTITLE4=Apache war dance
TTITLE5=Blue guitar
TTITLE6=Cryin' blues
TTITLE7=Frog hop
TTITLE8=Guitar rumba
TTITLE9=These cotton pickin' blues
TTITLE10=Tanya
TTITLE11=Universal rock
TTITLE12=That man
TTITLE13=Calling all blues
TTITLE14=Believe I'll settle down
TTITLE15=Guitar rag
TTITLE16=The Hucklebuck
TTITLE17=Going on down the line
EXTD=
EXTT0=
EXTT1=
EXTT2=
EXTT3=
EXTT4=
EXTT5=
EXTT6=
EXTT7=
EXTT8=
EXTT9=
EXTT10=
EXTT11=
EXTT12=
EXTT13=
EXTT14=
EXTT15=
EXTT16=
EXTT17=
PLAYORDER=
